<svg viewBox="-1 0 59 40" fill="currentColor" xmlns="http://www.w3.org/2000/svg"><path d="M51.4537347,24.6129091 L50.8751633,25.1874545 C47.6076122,28.422 43.5006735,30.2783636 39.6049592,30.2783636 C33.4243469,30.2783636 28.9390408,25.8129091 28.9390408,19.662 C28.9390408,13.5147273 33.3159796,9.05109091 39.3478163,9.05109091 C42.8412857,9.05109091 46.9776122,10.6638182 49.8851633,13.1547273 L50.4674082,13.6583636 L56.249449,7.67836364 L55.5974082,7.12745455 C51.1561837,3.35290909 44.8488367,1.09472727 38.727,1.09472727 C31.9825102,1.09472727 26.2702653,4.13109091 22.8759796,8.93290909 L12.2210816,8.93290909 L11.5984286,14.1256364 L20.3504694,14.1256364 C20.069449,15.0638182 19.8747551,16.0401818 19.7425102,17.0438182 L6.64659184,17.0438182 L6.02393878,22.2347273 L19.7406735,22.2347273 C19.8710816,23.2383636 20.0639388,24.2165455 20.339449,25.1492727 L20.3302653,25.1492727 L19.5533265,25.1492727 L0.623938776,25.1492727 L-0.000551020408,30.342 L19.5533265,30.342 L20.3302653,30.342 L22.8300612,30.342 C26.2261837,35.1801818 32.011898,38.182 38.9859796,38.182 C47.7435306,38.182 53.8488367,33.7474545 56.7086327,31.1056364 L57.3165918,30.5438182 L51.4537347,24.6129091 Z"/><path d="M5.16306122,17.0436364 L1.30408163,17.0436364 L0.681428571,22.2345455 L4.5422449,22.2345455 L5.16306122,17.0436364 Z"/></svg>
