<svg xmlns="http://www.w3.org/2000/svg" viewBox="0 0 450 450" fill="currentColor"><g transform="translate(76.358, 390.696)"><path d="M 239.777 -178.359 C 259.922 -194.574 272.207 -217.664 272.207 -247.148 C 272.207 -304.633 225.527 -343.941 167.547 -343.941 L 31.938 -343.941 L 31.938 0 L 177.867 0 C 237.32 0 284.98 -40.781 284.98 -99.742 C 284.98 -135.609 267.293 -162.637 239.777 -178.359 Z M 167.547 -280.559 C 189.168 -280.559 204.398 -264.344 204.398 -242.723 C 204.398 -221.105 188.676 -204.891 167.547 -204.891 L 99.742 -204.891 L 99.742 -280.559 Z M 177.867 -63.383 L 99.742 -63.383 L 99.742 -144.457 L 177.867 -144.457 C 200.961 -144.457 217.664 -127.258 217.664 -104.164 C 217.664 -80.582 200.961 -63.383 177.867 -63.383 Z"/></g><g transform="translate(175.491, 333.757)"><path d="M 77.434 -56.797 L 78.82 -65.105 L 62.336 -65.105 L 66.492 -90.039 L 57.625 -90.039 L 53.469 -65.105 L 35.184 -65.105 L 39.34 -90.039 L 30.477 -90.039 L 26.32 -65.105 L 9.559 -65.105 L 8.172 -56.797 L 24.934 -56.797 L 22.164 -40.172 L 5.539 -40.172 L 4.156 -31.859 L 20.777 -31.859 L 16.621 -6.926 L 25.488 -6.926 L 29.645 -31.859 L 47.93 -31.859 L 43.773 -6.926 L 52.641 -6.926 L 56.797 -31.859 L 73.418 -31.859 L 74.805 -40.172 L 58.18 -40.172 L 60.949 -56.797 Z M 49.316 -40.172 L 31.031 -40.172 L 33.801 -56.797 L 52.086 -56.797 Z"/></g><g transform="translate(196.622, 196.403)"><path d="M 77.434 -56.797 L 78.82 -65.105 L 62.336 -65.105 L 66.492 -90.039 L 57.625 -90.039 L 53.469 -65.105 L 35.184 -65.105 L 39.34 -90.039 L 30.477 -90.039 L 26.32 -65.105 L 9.559 -65.105 L 8.172 -56.797 L 24.934 -56.797 L 22.164 -40.172 L 5.539 -40.172 L 4.156 -31.859 L 20.777 -31.859 L 16.621 -6.926 L 25.488 -6.926 L 29.645 -31.859 L 47.93 -31.859 L 43.773 -6.926 L 52.641 -6.926 L 56.797 -31.859 L 73.418 -31.859 L 74.805 -40.172 L 58.18 -40.172 L 60.949 -56.797 Z M 49.316 -40.172 L 31.031 -40.172 L 33.801 -56.797 L 52.086 -56.797 Z"/></g></svg>
