<svg xmlns="http://www.w3.org/2000/svg" viewBox="0 0 270 56" fill="#ffffff">
  <g transform="translate(0, 3) scale(0.106)">
    <path stroke="#ffffff" stroke-width="30" fill="none" d="M218.632,60C107.088,60,15.374,138.248,15.374,236.252C15.374,292.38,39.0338,336.722,75.978,366.934C112.825,397.067,162.68,413,215.11,413C266.913,413,316.754,397.512,353.75,367.861C390.854,338.124,414.845,294.27,414.845,238.237C414.845,140.526,330.503,60,218.632,60Z"/>
    <ellipse cx="109" cy="236" rx="50" ry="55"/>
    <ellipse cx="321" cy="234" rx="50" ry="55"/>
    <rect width="8" height="16" x="204" y="282" rx="4" transform="rotate(25 204 282)"/>
    <rect width="8" height="16" x="217" y="285" rx="4" transform="rotate(-25 217 285)"/>
  </g>
  <g transform="translate(60, 0)">
    <path d="M9.33 44L3.23 44L3.23 17.80L9.14 17.80L9.14 22.18L9.42 22.18Q10.13 19.91 11.88 18.68Q13.64 17.45 15.89 17.45L15.89 17.45Q16.41 17.45 17.04 17.49Q17.67 17.54 18.12 17.61L18.12 17.61L18.12 23.21Q17.74 23.09 16.90 23Q16.05 22.91 15.23 22.91L15.23 22.91Q13.55 22.91 12.20 23.63Q10.85 24.36 10.09 25.64Q9.33 26.91 9.33 28.58L9.33 28.58L9.33 44ZM33.87 44.54L33.87 44.54Q29.91 44.54 27.06 42.88Q24.21 41.21 22.68 38.19Q21.14 35.16 21.14 31.06L21.14 31.06Q21.14 27.01 22.65 23.96Q24.16 20.91 26.94 19.19Q29.72 17.47 33.47 17.47L33.47 17.47Q35.86 17.47 38.03 18.24Q40.20 19.02 41.87 20.63Q43.55 22.25 44.50 24.75Q45.45 27.24 45.45 30.69L45.45 30.69L45.45 32.61L27.19 32.61Q27.28 34.77 28.03 36.31L28.03 36.31Q28.88 38.02 30.40 38.89Q31.92 39.76 33.94 39.76L33.94 39.76Q35.27 39.76 36.36 39.37Q37.45 38.98 38.25 38.22Q39.05 37.46 39.45 36.36L39.45 36.36L45.05 37.51Q44.41 39.62 42.89 41.20Q41.37 42.78 39.08 43.66Q36.80 44.54 33.87 44.54ZM27.21 28.46L27.21 28.46L39.52 28.46Q39.38 27.01 38.88 25.79L38.88 25.79Q38.20 24.13 36.86 23.19Q35.51 22.25 33.49 22.25Q31.48 22.25 30.07 23.20Q28.66 24.15 27.94 25.72L27.94 25.72Q27.35 26.98 27.21 28.46ZM60.59 44.54L60.59 44.54Q57.56 44.54 55.24 43.67Q52.92 42.80 51.43 41.14Q49.95 39.48 49.50 37.11L49.50 37.11L55.20 36.03Q55.73 37.98 57.11 38.93Q58.48 39.88 60.70 39.88L60.70 39.88Q62.95 39.88 64.28 38.97Q65.60 38.07 65.60 36.73L65.60 36.73Q65.60 35.61 64.73 34.87Q63.87 34.13 62.06 33.73L62.06 33.73L57.59 32.77Q53.88 31.98 52.05 30.15Q50.23 28.32 50.23 25.44L50.23 25.44Q50.23 23 51.56 21.22Q52.90 19.44 55.28 18.45Q57.66 17.47 60.80 17.47L60.80 17.47Q63.77 17.47 65.92 18.31Q68.06 19.16 69.39 20.67Q70.71 22.18 71.23 24.22L71.23 24.22L65.79 25.30Q65.34 23.91 64.17 22.96Q63 22.02 60.87 22.02L60.87 22.02Q58.92 22.02 57.62 22.87Q56.32 23.73 56.32 25.06L56.32 25.06Q56.32 26.21 57.19 26.96Q58.05 27.71 60.05 28.13L60.05 28.13L64.50 29.07Q68.23 29.87 70.03 31.63Q71.84 33.38 71.84 36.15L71.84 36.15Q71.84 38.63 70.41 40.52Q68.98 42.41 66.43 43.47Q63.89 44.54 60.59 44.54ZM88.41 44.54L88.41 44.54Q84.59 44.54 81.77 42.84Q78.96 41.14 77.43 38.11Q75.89 35.07 75.89 31.04L75.89 31.04Q75.89 26.96 77.43 23.90Q78.96 20.84 81.77 19.16Q84.59 17.47 88.41 17.47L88.41 17.47Q92.25 17.47 95.06 19.16Q97.88 20.84 99.41 23.90Q100.95 26.96 100.95 31.04L100.95 31.04Q100.95 35.07 99.41 38.11Q97.88 41.14 95.06 42.84Q92.25 44.54 88.41 44.54ZM88.41 39.59L88.41 39.59Q90.54 39.59 91.96 38.45Q93.38 37.30 94.07 35.35Q94.76 33.41 94.76 31.02L94.76 31.02Q94.76 28.60 94.07 26.66Q93.38 24.71 91.96 23.56Q90.54 22.41 88.41 22.41L88.41 22.41Q86.27 22.41 84.88 23.56Q83.48 24.71 82.79 26.64Q82.10 28.58 82.10 31.02L82.10 31.02Q82.10 33.41 82.79 35.35Q83.48 37.30 84.88 38.45Q86.27 39.59 88.41 39.59ZM112.36 28.65L112.36 28.65L112.36 44L106.27 44L106.27 17.80L112.03 17.80L112.10 23Q113.16 20.54 114.87 19.16L114.87 19.16Q117 17.47 120.21 17.47L120.21 17.47Q122.91 17.47 124.92 18.62Q126.94 19.77 128.05 21.97Q129.16 24.17 129.16 27.34L129.16 27.34L129.16 44L123.07 44L123.07 28.27Q123.07 25.65 121.71 24.15Q120.35 22.65 117.96 22.65L117.96 22.65Q116.34 22.65 115.08 23.35Q113.81 24.05 113.09 25.40Q112.36 26.75 112.36 28.65ZM142.95 44.54L142.95 44.54Q140.46 44.54 138.47 43.64Q136.48 42.73 135.33 40.98Q134.18 39.22 134.18 36.64L134.18 36.64Q134.18 34.41 135.01 32.96Q135.84 31.51 137.26 30.64Q138.68 29.77 140.46 29.33Q142.24 28.88 144.16 28.70L144.16 28.70Q146.44 28.44 147.87 28.25Q149.30 28.06 149.96 27.64Q150.63 27.22 150.63 26.33L150.63 26.33L150.63 26.21Q150.63 24.92 150.12 24.02Q149.60 23.12 148.58 22.64Q147.56 22.16 146.06 22.16L146.06 22.16Q144.54 22.16 143.43 22.63Q142.31 23.09 141.61 23.84Q140.91 24.59 140.58 25.46L140.58 25.46L134.93 24.31Q135.70 21.99 137.32 20.48Q138.94 18.97 141.18 18.22Q143.41 17.47 146.04 17.47L146.04 17.47Q147.89 17.47 149.78 17.90Q151.66 18.34 153.23 19.37Q154.80 20.40 155.77 22.13Q156.73 23.87 156.73 26.49L156.73 26.49L156.73 44L150.89 44L150.89 40.39L150.66 40.39Q150.07 41.49 149.05 42.44Q148.03 43.39 146.52 43.96Q145.01 44.54 142.95 44.54ZM144.52 40.02L144.52 40.02Q146.41 40.02 147.79 39.27Q149.16 38.52 149.92 37.29Q150.68 36.05 150.68 34.60L150.68 34.60L150.68 31.51Q150.38 31.74 149.66 31.95Q148.95 32.16 148.07 32.33Q147.19 32.49 146.33 32.61Q145.48 32.73 144.89 32.80L144.89 32.80Q143.53 32.98 142.43 33.41Q141.33 33.83 140.71 34.59Q140.09 35.35 140.09 36.57L140.09 36.57Q140.09 37.70 140.66 38.46Q141.23 39.22 142.23 39.62Q143.23 40.02 144.52 40.02ZM170.25 17.80L175.31 17.80L175.31 22.58L170.25 22.58L170.25 36.62Q170.25 38.05 170.86 38.71Q171.47 39.38 172.85 39.38L172.85 39.38Q173.27 39.38 173.96 39.28Q174.66 39.17 175.08 39.08L175.08 39.08L176.04 43.79Q175.03 44.09 173.98 44.22Q172.92 44.35 171.96 44.35L171.96 44.35Q168.19 44.35 166.17 42.48Q164.16 40.60 164.16 37.13L164.16 37.13L164.16 22.58L160.43 22.58L160.43 17.80L164.16 17.80L164.16 11.56L170.25 11.56L170.25 17.80ZM191.72 44.54L191.72 44.54Q187.76 44.54 184.91 42.88Q182.06 41.21 180.53 38.19Q178.99 35.16 178.99 31.06L178.99 31.06Q178.99 27.01 180.50 23.96Q182.02 20.91 184.79 19.19Q187.57 17.47 191.32 17.47L191.32 17.47Q193.71 17.47 195.88 18.24Q198.05 19.02 199.72 20.63Q201.40 22.25 202.35 24.75Q203.30 27.24 203.30 30.69L203.30 30.69L203.30 32.61L185.04 32.61Q185.13 34.77 185.88 36.31L185.88 36.31Q186.73 38.02 188.25 38.89Q189.77 39.76 191.79 39.76L191.79 39.76Q193.13 39.76 194.21 39.37Q195.30 38.98 196.10 38.22Q196.90 37.46 197.30 36.36L197.30 36.36L202.90 37.51Q202.27 39.62 200.74 41.20Q199.22 42.78 196.93 43.66Q194.65 44.54 191.72 44.54ZM185.06 28.46L185.06 28.46L197.37 28.46Q197.23 27.01 196.73 25.79L196.73 25.79Q196.05 24.13 194.71 23.19Q193.36 22.25 191.34 22.25Q189.33 22.25 187.92 23.20Q186.52 24.15 185.79 25.72L185.79 25.72Q185.20 26.98 185.06 28.46Z"/>
  </g>
</svg>
